<?xml version="1.0"?>
<svg width="200" height="200" xmlns="http://www.w3.org/2000/svg" xmlns:svg="http://www.w3.org/2000/svg" preserveAspectRatio="xMidYMid meet">
 <g>
  <title>Layer 1</title>
  <g fill="#8600ED" id="layer101">
   <path fill="#8600ed" stroke="null" id="svg_1" d="m121.017998,197.233002c-0.048996,-0.048996 -0.098,-1.824005 -0.098,-3.908997l0,-3.811005l7.393997,-11.839996c4.056,-6.514999 7.867004,-12.574005 8.437012,-13.469009c2.996994,-4.625992 5.960999,-10.065994 7.246994,-13.274002l0.619003,-1.546997l0,-25.081993l0,-25.081406l-0.585999,-1.221397c-1.759003,-3.680901 -5.993011,-5.065201 -9.625,-3.143402c-1.352005,0.700302 -2.281006,1.677505 -2.948013,3.110802l-0.520996,1.091202l-0.097992,7.410202c-0.065002,4.071999 -0.113998,10.847 -0.130005,15.048996l-0.016998,7.622002l-0.634995,0.634995c-0.554001,0.554001 -0.71701,0.636002 -1.401001,0.636002c-0.504013,0 -0.912003,-0.113998 -1.237007,-0.341995c-1.042999,-0.733002 -0.960999,2.507996 -0.960999,-40.1633c0,-42.622303 0.049004,-40.195602 -0.960999,-41.970802c-3.095001,-5.3909 -11.222,-4.250801 -12.802002,1.7752c-0.210999,0.846901 -0.244003,4.2183 -0.244003,27.850204c0,26.009697 -0.015999,26.889694 -0.308998,27.377693c-0.163002,0.277 -0.586998,0.635002 -0.929001,0.798004c-0.552994,0.261002 -0.683998,0.277 -1.269997,0.065002c-0.406998,-0.146004 -0.798004,-0.439003 -1.026001,-0.781006l-0.375,-0.554001l-0.015999,-26.156494c-0.015999,-14.381104 -0.065002,-28.908802 -0.129997,-32.263905l-0.098007,-6.107498l-0.504997,-1.058601c-0.976997,-2.068398 -2.572998,-3.355099 -4.755997,-3.8437c-3.615204,-0.814297 -7.116806,1.1889 -8.191704,4.674301c-0.293198,0.960899 -0.309502,2.052101 -0.309502,33.176003c0,31.840897 0,32.198898 -0.325699,32.735901c-0.407196,0.652 -1.221497,1.172997 -1.889297,1.172997c-0.667702,0 -1.547203,-0.602997 -1.889198,-1.303001c-0.276901,-0.536995 -0.293205,-2.230995 -0.293205,-28.420197c0,-30.4561 0.048904,-28.8438 -0.928299,-30.537601c-1.368095,-2.3778 -4.364899,-3.745899 -7.149895,-3.289902c-2.703606,0.4398 -4.706802,2.2313 -5.6026,4.983704c-0.162903,0.504898 -0.2117,6.905598 -0.228004,30.244396l-0.016296,29.609604l-0.342003,0.456001c-0.179199,0.243996 -0.6026,0.585999 -0.944603,0.764999c-0.537498,0.260994 -0.667793,0.277 -1.205299,0.064995c-0.325699,-0.129997 -0.765396,-0.472 -0.960899,-0.764999l-0.374596,-0.554001l0,-18.094498c0,-19.902298 0.016296,-19.381096 -0.9935,-21.286697c-1.042305,-1.954399 -2.7687,-2.947899 -5.114006,-2.964203c-2.752396,-0.016197 -4.625397,1.384399 -5.455997,4.087997c-0.325798,1.0261 -0.325798,1.645004 -0.325798,36.579407c0,29.918991 0.0326,36.042999 0.244297,38.778992c0.846901,11.335999 2.459301,20.016006 4.934898,26.547012c0.879501,2.328995 1.840401,5.830994 2.947906,10.635986c1.416901,6.205002 2.556999,12.376999 2.312698,12.622009c-0.1791,0.179001 -2.8339,-0.684006 -6.449501,-2.085007c-21.873001,-8.550003 -40.000101,-24.576996 -51.2054,-45.30899c-9.08792,-16.825012 -13.029298,-36.157005 -11.33548,-55.424103c2.05212,-23.078201 12.06848,-44.430004 28.58308,-60.912203c19.5604,-19.5277 45.716803,-29.82087 73.224897,-28.81111c12.345001,0.43975 24.153,3.09448 35.406998,7.91531c20.440002,8.7785 37.818008,24.8372 48.225006,44.576698c5,9.462498 8.306,19.218304 10.082001,29.788303c1.612,9.625397 1.725998,20.635101 0.30899,30.489098c-3.924988,27.378006 -19.575989,52.132996 -42.817993,67.720001c-9.233994,6.205002 -19.673996,10.878998 -30.210999,13.533997c-3.730003,0.944 -3.599998,0.912003 -3.730003,0.798004z"/>
   <path fill="#8600ed" stroke="null" id="svg_2" d="m95.024414,169.219818c-1.791542,-0.276901 -4.055382,-0.814346 -5.293175,-1.27037c-8.257339,-2.980469 -14.299706,-9.886002 -16.237816,-18.501678c-0.325737,-1.482071 -0.374596,-2.117264 -0.374596,-5.114014c0,-2.980453 0.048859,-3.631927 0.374596,-5.114014c2.019539,-9.006531 8.371361,-16.009804 17.052139,-18.794815c4.739449,-1.514671 10.456062,-1.514671 15.162918,0.032539c8.7948,2.866447 15.45607,10.537483 17.003296,19.527733c0.407158,2.312744 0.423454,5.879517 0.065147,8.32251c-0.504883,3.452774 -2.117271,7.377869 -4.29969,10.472336c-1.335503,1.905548 -4.055389,4.625443 -5.912064,5.944641c-4.397408,3.094467 -9.299698,4.641708 -14.658012,4.59285c-1.368095,-0.016281 -2.654739,-0.048859 -2.882744,-0.097717z"/>
  </g>
 </g>
</svg>